<svg xmlns="http://www.w3.org/2000/svg" width="1066.667" height="924.863" viewBox="0 0 1000 867.059"><path d="M772.02 867.016L1000 318.123c-100.017-110.791-224.416-165.092-373.798-162.26l-229.439 553.96c140.067-18.587 264.38 34.212 375.258 157.194zM613.281 155.864l-84.349 4.98-28.589 70.054 84.35-7.898zm-33.568 79.37l-83.662 5.709-29.233 70.055 84.993-7.856zm-32.881 80.056l-83.576 4.937-29.362 69.41 85.036-6.48zm-32.838 80.014l-84.392 5.022-28.546 69.326 84.35-7.169zm-32.881 78.597l-84.35 5.023-28.631 69.368 85.036-7.169zm-33.611 81.474l-84.392 5.065-28.546 70.055 84.35-7.169zm-33.654 80.099l-83.62 5.065-29.275 69.97 84.993-7.899zm26.485-483.216l-26.485 63.659 77.91-6.439 26.486-62.843z"/><path d="M458.92 290.222l25.756-62.887-77.91 5.667-26.486 63.616zm-32.237 77.18l26.485-63.616-78.597 6.396-25.756 62.887z" fill="#f30"/><path d="M341.647 390.325l-27.172 63.616 79.37-6.44 25.712-63.615z"/><path d="M307.349 471.025l-25.713 63.573 78.598-6.267 25.798-63.702zm-32.152 77.267l-25.712 63.573 78.683-6.439 26.4-63.616z" fill="#02a5ff"/><path d="M294.514 685.44l26.4-62.887-77.825 5.667-26.485 62.929zM436.77 117.274l-65.762 2.876-23.566 56.49 66.449-3.649z"/><path d="M337.397 201.58l-23.566 55.76 66.449-3.562 22.965-55.074zm-32.151 76.537l-22.88 56.447 66.45-3.563 22.879-55.074z" fill="#f30"/><path d="M338.127 355.984l-66.45 2.103-22.879 56.49 66.535-3.52z"/><path d="M238.067 439.646L214.5 496.094l67.18-3.52 22.836-55.718zm-31.508 77.181l-22.88 55.031 65.763-2.79 23.566-55.76z" fill="#02a5ff"/><path d="M216.604 649.082l22.88-55.761-65.763 2.833-23.566 55.632zm88.642-552.585l-16.398 40.05 52.842-2.189 17.17-40.694z"/><path d="M271.677 177.284l-16.44 40.007 52.885-2.06 17.17-40.78zm-32.194 76.536l-16.44 40.05 53.657-1.46 17.084-42.152z" fill="#f30"/><path d="M260.216 331.001l-53.657 2.876-17.127 40.05 53.657-1.33z"/><path d="M173.034 414.578l-17.127 40.78 54.344-2.147 16.44-41.51zm-32.152 77.266L124.4 532.581l53.657-2.146 16.398-41.467z" fill="#02a5ff"/><path d="M107.315 571.815l-16.527 40.78 53.614-2.147 17.17-41.423zM281.68 72.974l14.294-34.34-40.737 5.751-13.608 33.568z"/><path d="M221.583 125.129l-14.294 33.654 40.693-5.023 14.295-34.984zm-32.151 77.266l-14.295 33.568 40.737-4.979 15.024-34.985z" fill="#f30"/><path d="M156.55 282.366l-14.294 33.654 40.007-5.022 15.024-35.07z"/><path d="M122.982 363.196l-13.521 33.525 39.964-4.937 14.337-34.298zm-32.194 77.137l-13.522 33.568 39.964-4.98 14.295-35.027z" fill="#02a5ff"/><path d="M57.22 520.39l-12.878 32.924 40.05-4.378 14.294-34.985zM206.559 2.876l-9.959 22.88 30.65-.73L238.023 0z"/><path d="M173.72 82.933l-10 23.61 30.047-.73 9.959-24.984zm-32.15 76.451l-9.316 23.609h29.276l10.002-25.026z" fill="#f30"/><path d="M108.645 239.526l-9.959 23.524h30.006l10.688-25.026z"/><path d="M75.077 320.957l-10.002 22.879 30.006-.687 9.959-23.566zM42.926 398.18l-10.002 23.566 30.048-.687 10.646-24.381z" fill="#02a5ff"/><path d="M9.315 478.237L0 501.889l30.048-.816 10.002-25.026z"/><path d="M661.916 423.85l72.888-175.095c-35.714-12.19-82.932-17.127-141.483-15.753l-72.244 174.45c53.614-2.19 100.832 3.649 140.84 16.398z" fill="#f30"/><path d="M902.773 332.418c-32.881-33.611-71.514-57.177-115.77-71.515l-74.349 179.43 50.01 20.733c19.23 7.813 41.423 23.61 67.135 47.906z" fill="#6c3"/><path d="M808.422 559.066c-32.924-32.967-72.201-55.117-117.23-67.222L619.72 664.063c41.424 14.337 80.1 37.903 117.273 69.325z" fill="#fc0"/><path d="M570.398 645.476l69.283-167.24c-43.613-14.294-90.703-20.003-140.754-16.44l-70.742 169.471c42.153-2.275 89.329 2.833 142.213 14.209z" fill="#02a5ff"/></svg>